<svg xmlns="http://www.w3.org/2000/svg" xmlns:xlink="http://www.w3.org/1999/xlink" id="Capa_1" x="0px" y="0px" viewBox="0 0 512 512" style="enable-background:new 0 0 512 512;" xml:space="preserve" width="512" height="512"><g>	<linearGradient id="SVGID_1_" gradientUnits="userSpaceOnUse" x1="368" y1="415" x2="512" y2="415">		<stop offset="0" style="stop-color:#00F2FE"></stop>		<stop offset="0.0208" style="stop-color:#03EFFE"></stop>		<stop offset="0.2931" style="stop-color:#24D2FE"></stop>		<stop offset="0.5538" style="stop-color:#3CBDFE"></stop>		<stop offset="0.7956" style="stop-color:#4AB0FE"></stop>		<stop offset="1" style="stop-color:#4FACFE"></stop>	</linearGradient>	<path style="fill:url(#SVGID_1_);" d="M413.971,509.301c-1.711,1.704-4.305,2.689-6.761,2.699c-3.496,0.014-6.225-1.854-6.211-5&#10;&#9;&#9;c0.004-0.757,0.194-1.595,0.613-2.509L428.488,430h-40.177c-15.474,0-25.248-16.409-17.719-29.833L416.675,318h70.986l-36.597,59&#10;&#9;&#9;h46.317c12.58,0,19.198,14.814,11.001,24.29L413.971,509.301z"></path>			<linearGradient id="SVGID_00000045581855025122686890000004309376421977701307_" gradientUnits="userSpaceOnUse" x1="0" y1="256" x2="512" y2="256">		<stop offset="0" style="stop-color:#00F2FE"></stop>		<stop offset="0.0208" style="stop-color:#03EFFE"></stop>		<stop offset="0.2931" style="stop-color:#24D2FE"></stop>		<stop offset="0.5538" style="stop-color:#3CBDFE"></stop>		<stop offset="0.7956" style="stop-color:#4AB0FE"></stop>		<stop offset="1" style="stop-color:#4FACFE"></stop>	</linearGradient>			<path style="fill:none;stroke:url(#SVGID_00000045581855025122686890000004309376421977701307_);stroke-width:40;stroke-linecap:round;stroke-linejoin:round;stroke-miterlimit:10;" d="&#10;&#9;&#9;M248,20h80 M287,81V20 M20,361h109 M20,281h139 M20,441h79 M438,86l-17,21.611 M492,263C480.339,160.572,392.048,81,286.5,81&#10;&#9;&#9;c-84.539,0-157.155,51.048-188.705,124 M177.5,462c31.382,19.423,69.382,30,109,30c22.977,0,44.961-3.216,65.5-10 M318.087,312.88&#10;&#9;&#9;C332.752,296.588,367,188,367,188s-93.129,55.374-107.794,71.666c-14.665,16.292-13.372,41.412,2.887,56.107&#10;&#9;&#9;C278.353,330.468,303.422,329.173,318.087,312.88z"></path></g></svg>